<svg xmlns="http://www.w3.org/2000/svg" viewBox="0 0 295.38 295.38"><defs><style>.cls-1{fill:#2a3b97;}.cls-2,.cls-3{fill:#fff;}.cls-3{font-size:46px;font-family:Avenir-Book, Avenir;}</style></defs><title>bout-labs-circle</title><g id="Circle"><circle class="cls-1" cx="147.69" cy="147.69" r="147.69"/></g><g id="Bout"><path id="Bout_Logo" data-name="Bout Logo" class="cls-2" d="M103.5,111.52a47.16,47.16,0,0,1,12.22,3.15,30.41,30.41,0,0,1,10.19,6.7,19.6,19.6,0,0,1,5.35,11.46,19.55,19.55,0,0,1,2.8.34l3.82.68c1.47.34,3.11.68,4.93,1a30.11,30.11,0,0,1,4.33-2.8,60.88,60.88,0,0,1,7.12-3.4,71.75,71.75,0,0,1,8.5-2.8,33.58,33.58,0,0,1,8.57-1.19,13.07,13.07,0,0,1,5.35.85,5,5,0,0,1,2.47,2.46,9.36,9.36,0,0,1,.69,4v5.27a63.44,63.44,0,0,1-.6,7.64c-.46,3.51-.79,7-1.07,10.61s-.38,6.68-.32,9.34.55,3.93,1.45,3.82c1.25-.11,2.89-1.39,4.93-3.82a53.06,53.06,0,0,0,6-9.26,83.3,83.3,0,0,0,5.26-12.31,53.38,53.38,0,0,0,2.81-12.81c0-.57.56-1.25,1.69-2a30.59,30.59,0,0,1,3.91-2.29q2.2-1.11,4.16-1.87a10.05,10.05,0,0,1,2.46-.77l1.19.43a1.38,1.38,0,0,1,.85,1.1c-.57,3.29-1.08,6.17-1.53,8.66s-.87,4.84-1.27,7-.71,4.39-.94,6.53a67,67,0,0,0-.34,6.8c0,.56.09,1.86.26,3.9a45,45,0,0,0,1,6.37,23.61,23.61,0,0,0,2.12,5.86c.91,1.69,2.09,2.54,3.57,2.54s2.82-.82,4.07-2.46a30.46,30.46,0,0,0,3.31-5.52,43.14,43.14,0,0,0,2.21-5.77,14,14,0,0,0,.77-3.57v-5.26c0-1.58.14-3.25.25-5s.32-3.42.55-5,.36-3.42.7-5.85.75-5,1.2-7.81.94-5.55,1.45-8.32,1-5.24,1.61-7.39a89,89,0,0,0-10,.26q-5.78.42-10.87.76-4.59.34-11.54.93t-14.77,1.36q-7.82.77-15.71,1.61c-5.26.57-10.11,1.08-14.52,1.53S146,118,143,118.32s-4.93.42-5.61.42a1.65,1.65,0,0,1-1.86-1.87,5.36,5.36,0,0,1,1.18-2.88,24.84,24.84,0,0,1,2.8-3.31,19,19,0,0,1,3.4-2.72,12.21,12.21,0,0,1,3-1.44c.79-.12,2.44-.29,4.93-.51l8.32-.77q4.57-.42,9.42-.68c3.22-.17,6-.36,8.41-.59q6.62-.51,17.06-1t21.82-1.19l17.15-.68a22,22,0,0,0,.5-3.31c.11-1.3.17-2.46.17-3.48a9.82,9.82,0,0,0-.34-2.72,5.62,5.62,0,0,1,0-2.71,5.72,5.72,0,0,1,1.62-1.7c1-.79,2.06-1.61,3.31-2.46a35.53,35.53,0,0,1,3.65-2.21,7.29,7.29,0,0,1,2.29-.93c1.13,0,1.89.87,2.29,2.63a23.88,23.88,0,0,1,.51,5.94c-.06,2.21-.2,4.21-.42,6.25a32.07,32.07,0,0,1-.51,4h4.58c4.64,0,8.83.06,12.57.29a67.43,67.43,0,0,1,8.57,1.16c2.55.51,3.82,1.3,3.82,2.32a21.31,21.31,0,0,1-8.57,4.51,36.5,36.5,0,0,1-8.75,1.11l-13.58.35a25,25,0,0,0-1.78,6.28q-.94,4.76-1.79,10.53t-1.44,11.63c-.4,3.91-.59,7.22-.59,9.93,0,.34,0,1.79.17,4.33a73.49,73.49,0,0,0,.84,8.15,33.24,33.24,0,0,0,2.21,7.9c1,2.38,2.44,3.56,4.25,3.56,1.47,0,3.36-1.27,5.69-3.82a92.85,92.85,0,0,0,6.87-8.57c2.26-3.17,4.25-6.22,5.94-9.17s2.72-4.75,3.06-5.43a1.53,1.53,0,0,1,1.7,0,1.62,1.62,0,0,1,.68,1.36c0,.22-.06.82-.17,1.78s-.29,2.06-.51,3.31-.48,2.52-.77,3.82a14.09,14.09,0,0,1-1.1,3.31,40.81,40.81,0,0,1-4.33,6.37,75.5,75.5,0,0,1-7.22,7.89,50.51,50.51,0,0,1-8.65,6.71,16.52,16.52,0,0,1-8.49,2.8,7.27,7.27,0,0,1-4.76-1.53,15.29,15.29,0,0,1-3.22-3.65,20.28,20.28,0,0,1-2.21-4.67q-.85-2.53-1.53-4.58a107.75,107.75,0,0,1-8.66,10.36,14,14,0,0,1-10.53,4.41,7.4,7.4,0,0,1-5.85-2.63,23.86,23.86,0,0,1-3.82-6.11,38.41,38.41,0,0,1-2.3-6.8c-.5-2.2-.82-3.82-.93-4.83a66.13,66.13,0,0,1-5.26,7.13,51.12,51.12,0,0,1-6,6,30.7,30.7,0,0,1-6.54,4.25,15.29,15.29,0,0,1-6.62,1.61,3.87,3.87,0,0,1-3.39-1.7,12.13,12.13,0,0,1-1.79-3.9,19.44,19.44,0,0,1-.68-4.25c0-1.35-.08-2.2-.08-2.54l2.21-31.24a3.79,3.79,0,0,0-.85-2.3,4.44,4.44,0,0,0-2.89-1.44,14.42,14.42,0,0,0-5.18.34,25.24,25.24,0,0,0-7.38,3.23,21.44,21.44,0,0,1,9,7.64,17,17,0,0,1,3.06,9.17,17.74,17.74,0,0,1-3,9.84,32,32,0,0,1-7.22,7.9,38,38,0,0,1-9,5.26,22.7,22.7,0,0,1-8.48,1.95,8.54,8.54,0,0,1-5-1.35,9.29,9.29,0,0,1-3-3.31,15.31,15.31,0,0,1-1.44-4.16,21.91,21.91,0,0,1-.42-4.08,41.73,41.73,0,0,1,2.12-12.39A29.32,29.32,0,0,1,135,142.34c-.9-.34-2-.68-3.22-1s-1.92-.34-2,0A18.27,18.27,0,0,1,127.1,146a60.4,60.4,0,0,1-6.45,7.56,110.38,110.38,0,0,1-10,8.91A86.09,86.09,0,0,1,97.47,171a156.57,156.57,0,0,1-21.73,9.67,65,65,0,0,1-18.68,3.74,35.48,35.48,0,0,1-4.75-.34,27.33,27.33,0,0,1-4.84-1.1,13.88,13.88,0,0,1-4-2,5,5,0,0,1-2-3.14,14.42,14.42,0,0,1,.26-6A23.47,23.47,0,0,1,44,166.11a31.87,31.87,0,0,1,3.39-4.92q1.88-2.2,3.4-3.74a9.91,9.91,0,0,1-2.55.09c-1.24-.06-2-.37-2.2-.94q-.51-3.9-.68-8.06c-.12-2.77-.17-5.46-.17-8.07s0-5,.17-7.21.22-4,.34-5.52c-.57.11-1.08.23-1.53.34a13.94,13.94,0,0,1-2.55.34,2.94,2.94,0,0,1-1-2,4.24,4.24,0,0,1,.77-2.46,7.94,7.94,0,0,1,1.78-1.87c.68-.51,1.3-1,1.87-1.36a3.4,3.4,0,0,0,1-.93q.16-4.41.51-8.32c.22-2.15.48-4.24.76-6.28s.71-3.34,1.27-3.91c.23-.22.51-.48.85-.76s.74-.6,1.19-.94a7.42,7.42,0,0,1,1.53-1.18,35.25,35.25,0,0,0-6.2.76q-4,.77-7.89,1.78c-2.61.68-5,1.28-7,1.78a26,26,0,0,1-3.82.77,2.92,2.92,0,0,1-1.44-.43,1.51,1.51,0,0,1-.77-1.44c0-.9.88-2.15,2.63-3.73a54.84,54.84,0,0,1,6-4.67c2.26-1.53,4.42-2.89,6.45-4.08a18.62,18.62,0,0,1,3.91-2,104.72,104.72,0,0,1,18.08-3.4Q71,82.92,81,82.92c.57,0,1.7,0,3.4.16s3.65.32,5.86.6,4.55.68,7,1.19a58.38,58.38,0,0,1,6.79,1.78,19.51,19.51,0,0,1,5,2.38,3.9,3.9,0,0,1,2,3.22,9.25,9.25,0,0,1-2.21,6,32.28,32.28,0,0,1-5.26,5.09,59.35,59.35,0,0,1-6.2,4.24q-3.15,1.88-5,3.23A96.78,96.78,0,0,1,103.5,111.52ZM68.86,124.17c-4.92.8-8,1.31-9.25,1.53-.23,2.27-.5,4.64-.55,7.13s-.22,4-.22,4.42V139c0,1,.16,2,.22,3.23s.24,2.35.29,3.48a10.43,10.43,0,0,0,.43,2.71A93.91,93.91,0,0,1,86.61,136a120,120,0,0,1,28.86-4,11.47,11.47,0,0,0-5.43-5,34.44,34.44,0,0,0-8-2.63,63.35,63.35,0,0,0-8.41-1.1c-2.77-.17-5-.25-6.7-.25A116.76,116.76,0,0,0,68.86,124.17Zm38.8,15.29q-4.41.33-9.59,1.1A56.28,56.28,0,0,0,88,143a69.33,69.33,0,0,0-7,2.72,81.32,81.32,0,0,0-10.7,5.6A53.23,53.23,0,0,0,60.46,159q-4.24,4.25-4.25,8.66a2.34,2.34,0,0,0,1,2,8.94,8.94,0,0,0,2.55,1.28,14.71,14.71,0,0,0,3.31.67,32.92,32.92,0,0,0,3.31.17A53.05,53.05,0,0,0,78,170.27a67.73,67.73,0,0,0,12.82-4.33,69.05,69.05,0,0,0,12.4-7.21,52.26,52.26,0,0,0,10.35-9.94,13.68,13.68,0,0,0,.94-1.27A17.29,17.29,0,0,0,116,145a27.45,27.45,0,0,0,1.19-3,4.09,4.09,0,0,0,.17-2.54A68,68,0,0,0,107.66,139.46Zm31.66,27.33a6.42,6.42,0,0,0,1.62,2,3.83,3.83,0,0,0,2.55.85,5.4,5.4,0,0,0,3.56-1.28,10.15,10.15,0,0,0,2.46-3,13.63,13.63,0,0,0,1.36-3.56,14.63,14.63,0,0,0,.42-3.06,16.36,16.36,0,0,0-1.69-6.62,12.44,12.44,0,0,0-6.45-5.94,27.19,27.19,0,0,0-3.91,8.91,34.1,34.1,0,0,0-1,7.05,11.29,11.29,0,0,0,.26,2.12A9.94,9.94,0,0,0,139.32,166.79ZM90.85,96.84A76,76,0,0,0,81.34,96a100.54,100.54,0,0,0-10.18.17c-3.29.23-5.67.45-7.14.68q-.84.16-1.44,2a33.17,33.17,0,0,0-1,4.15c-.28,1.53-.51,3-.68,4.42s-.25,2.29-.25,2.63l-.34,4.08q1.35-.51,4.5-1.53t7-2.46c2.55-1,5.18-2,7.89-3s5.24-2,7.56-3.06,4.27-2,5.86-2.8,2.49-1.56,2.72-2.13Q95.09,97.52,90.85,96.84Z" transform="translate(-3.08 -3.1)"/></g><g id="Layer_3" data-name="Layer 3"><text class="cls-3" transform="translate(99.91 236.08)">Labs</text></g></svg>