<svg id="Layer_1" data-name="Layer 1" xmlns="http://www.w3.org/2000/svg" viewBox="0 0 251.61 103.89"><defs><style>.cls-1{fill:#fff;stroke:#d1d3d4;stroke-miterlimit:10;}</style></defs><title>bout-logotype</title><path id="Bout" class="cls-1" d="M88.17,43.33a47,47,0,0,1,12.22,3.14,30.47,30.47,0,0,1,10.19,6.7,19.6,19.6,0,0,1,5.35,11.47,18.17,18.17,0,0,1,2.8.34l3.82.67c1.47.34,3.11.68,4.93,1a30.11,30.11,0,0,1,4.33-2.8,58.79,58.79,0,0,1,7.13-3.39,71.58,71.58,0,0,1,8.49-2.81A33.64,33.64,0,0,1,156,56.48a13.07,13.07,0,0,1,5.35.85,5,5,0,0,1,2.47,2.47,9.3,9.3,0,0,1,.69,4v5.26a63.3,63.3,0,0,1-.6,7.64c-.46,3.51-.79,7-1.07,10.61s-.38,6.68-.32,9.34.55,3.93,1.45,3.82q1.88-.17,4.93-3.82a53.33,53.33,0,0,0,6-9.25,84.22,84.22,0,0,0,5.26-12.31A53.45,53.45,0,0,0,183,62.26c0-.57.56-1.25,1.7-2a31.65,31.65,0,0,1,3.9-2.29q2.21-1.11,4.16-1.87a9.84,9.84,0,0,1,2.46-.76c.34.11.74.25,1.19.42a1.36,1.36,0,0,1,.85,1.11c-.57,3.28-1.08,6.17-1.53,8.65s-.87,4.84-1.27,7-.71,4.39-.94,6.54a66.63,66.63,0,0,0-.34,6.79c0,.57.09,1.87.26,3.9a45,45,0,0,0,1,6.37,24,24,0,0,0,2.12,5.86c.91,1.7,2.09,2.55,3.57,2.55s2.83-.82,4.07-2.47a30.71,30.71,0,0,0,3.31-5.51,44.78,44.78,0,0,0,2.22-5.78,14.3,14.3,0,0,0,.76-3.56V82c0-1.58.14-3.25.25-5s.32-3.42.55-5,.36-3.43.7-5.86.75-5,1.2-7.81.94-5.55,1.45-8.32,1.05-5.24,1.61-7.39a91.44,91.44,0,0,0-10,.26c-3.85.28-7.47.54-10.87.76q-4.57.35-11.54.94t-14.77,1.35q-7.82.77-15.71,1.62c-5.26.57-10.1,1.07-14.52,1.53s-8.15.82-11.2,1.1-4.93.42-5.61.42a1.64,1.64,0,0,1-1.86-1.86,5.31,5.31,0,0,1,1.19-2.89,24.12,24.12,0,0,1,2.8-3.31,18.56,18.56,0,0,1,3.39-2.72,13,13,0,0,1,3-1.44c.79-.11,2.44-.28,4.93-.51l8.32-.77c3.05-.28,6.19-.5,9.42-.68s6-.36,8.41-.59q6.62-.51,17.06-1t21.82-1.19l17.15-.68a21.84,21.84,0,0,0,.5-3.31c.12-1.3.17-2.46.17-3.48a9.7,9.7,0,0,0-.34-2.71,5.67,5.67,0,0,1,0-2.72,5.85,5.85,0,0,1,1.62-1.7c1-.79,2.06-1.61,3.31-2.46a37.4,37.4,0,0,1,3.65-2.21,7.29,7.29,0,0,1,2.29-.93c1.13,0,1.89.88,2.29,2.63a23.92,23.92,0,0,1,.51,5.94c0,2.21-.2,4.22-.42,6.25a32.07,32.07,0,0,1-.51,4h4.59c4.63,0,8.82.06,12.56.29a69.29,69.29,0,0,1,8.57,1.16c2.55.51,3.82,1.3,3.82,2.32a21.27,21.27,0,0,1-8.57,4.52,37,37,0,0,1-8.75,1.11l-13.58.34a25.13,25.13,0,0,0-1.78,6.28c-.63,3.17-1.22,6.69-1.79,10.53s-1,7.73-1.44,11.63-.59,7.22-.59,9.94c0,.34.05,1.78.17,4.33a71.75,71.75,0,0,0,.85,8.15,33.29,33.29,0,0,0,2.2,7.89q1.53,3.57,4.25,3.57c1.47,0,3.37-1.28,5.69-3.82a94.4,94.4,0,0,0,6.87-8.58,108.31,108.31,0,0,0,5.94-9.17q2.55-4.41,3.06-5.43a1.53,1.53,0,0,1,1.7,0,1.62,1.62,0,0,1,.68,1.36c0,.23-.06.82-.17,1.78s-.29,2.07-.51,3.31-.48,2.52-.76,3.82a14.08,14.08,0,0,1-1.11,3.31,40.81,40.81,0,0,1-4.33,6.37,76.48,76.48,0,0,1-7.21,7.89,51,51,0,0,1-8.66,6.71,16.52,16.52,0,0,1-8.49,2.8,7.32,7.32,0,0,1-4.76-1.52,15.49,15.49,0,0,1-3.22-3.65,21.12,21.12,0,0,1-2.21-4.67l-1.53-4.59a106.53,106.53,0,0,1-8.66,10.36A14,14,0,0,1,193,114.89a7.4,7.4,0,0,1-5.86-2.63,23.69,23.69,0,0,1-3.82-6.11,37.72,37.72,0,0,1-2.29-6.79,47.16,47.16,0,0,1-.94-4.84,63.88,63.88,0,0,1-5.26,7.13,50.48,50.48,0,0,1-6,6,30.65,30.65,0,0,1-6.54,4.24,15.29,15.29,0,0,1-6.62,1.61,3.88,3.88,0,0,1-3.39-1.69,12.19,12.19,0,0,1-1.79-3.91,20.07,20.07,0,0,1-.68-4.24c-.05-1.36-.08-2.21-.08-2.55l2.21-31.24a3.74,3.74,0,0,0-.85-2.29,4.4,4.4,0,0,0-2.89-1.45,14.42,14.42,0,0,0-5.18.34,25.63,25.63,0,0,0-7.38,3.23,21.44,21.44,0,0,1,9,7.64,16.92,16.92,0,0,1,3.06,9.17,17.8,17.8,0,0,1-3,9.85,32.31,32.31,0,0,1-7.21,7.89,38.42,38.42,0,0,1-9,5.26,22.63,22.63,0,0,1-8.49,2,8.54,8.54,0,0,1-5-1.36,9.39,9.39,0,0,1-3-3.31,15.31,15.31,0,0,1-1.44-4.16,21.91,21.91,0,0,1-.42-4.08,41.73,41.73,0,0,1,2.12-12.39,29.24,29.24,0,0,1,7.39-12.06c-.91-.34-2-.68-3.23-1s-1.92-.34-2,0a17.94,17.94,0,0,1-2.63,4.66,60.4,60.4,0,0,1-6.45,7.56,109,109,0,0,1-10,8.91,85.35,85.35,0,0,1-13.16,8.58,156.72,156.72,0,0,1-21.73,9.68,65,65,0,0,1-18.68,3.73,35.48,35.48,0,0,1-4.75-.34,25.68,25.68,0,0,1-4.84-1.1,13.88,13.88,0,0,1-4-2,5,5,0,0,1-2-3.14,14.42,14.42,0,0,1,.26-6,23.63,23.63,0,0,1,2.29-5.69A31.7,31.7,0,0,1,32.06,93c1.24-1.47,2.37-2.72,3.39-3.73a10.56,10.56,0,0,1-2.55.08c-1.24-.06-2-.37-2.2-.93-.34-2.61-.57-5.29-.68-8.07s-.17-5.46-.17-8.06,0-5,.17-7.22.22-4.05.34-5.52c-.57.11-1.08.23-1.53.34a13.94,13.94,0,0,1-2.55.34,2.94,2.94,0,0,1-1-2A4.24,4.24,0,0,1,26,55.72a8.13,8.13,0,0,1,1.78-1.87c.68-.51,1.3-1,1.87-1.35a3.53,3.53,0,0,0,1-.94q.16-4.41.51-8.32c.22-2.15.48-4.24.76-6.28s.71-3.34,1.27-3.91c.23-.22.51-.48.85-.76s.74-.59,1.19-.93a7.83,7.83,0,0,1,1.53-1.19,35.25,35.25,0,0,0-6.2.76c-2.66.51-5.29,1.11-7.89,1.78s-5,1.28-7,1.79a25.07,25.07,0,0,1-3.82.76,3,3,0,0,1-1.44-.42,1.52,1.52,0,0,1-.77-1.45q0-1.35,2.64-3.73a53.75,53.75,0,0,1,6-4.67q3.4-2.29,6.46-4.07a19.22,19.22,0,0,1,3.9-2,103.74,103.74,0,0,1,18.08-3.39q8.92-.86,18.93-.85c.57,0,1.7.06,3.4.17s3.65.31,5.86.59,4.55.68,7,1.19a58.38,58.38,0,0,1,6.79,1.78,19.51,19.51,0,0,1,5,2.38,3.92,3.92,0,0,1,2,3.23A9.22,9.22,0,0,1,93.52,30a32.28,32.28,0,0,1-5.26,5.09,61.05,61.05,0,0,1-6.2,4.25c-2.1,1.24-3.77,2.32-5,3.22A94.8,94.8,0,0,1,88.17,43.33ZM53.53,56c-4.92.79-8,1.3-9.25,1.52-.23,2.27-.5,4.65-.55,7.14s-.22,4-.22,4.41v1.78c0,1,.16,2,.22,3.23s.24,2.35.3,3.48a10.16,10.16,0,0,0,.42,2.72A93.37,93.37,0,0,1,71.28,67.78a119.47,119.47,0,0,1,28.86-4,11.47,11.47,0,0,0-5.43-5,33.52,33.52,0,0,0-8-2.63A61.57,61.57,0,0,0,78.32,55q-4.16-.26-6.7-.25A116.71,116.71,0,0,0,53.53,56Zm38.8,15.28c-2.94.23-6.14.59-9.59,1.1a56,56,0,0,0-10.1,2.46,68.28,68.28,0,0,0-7,2.72,81.32,81.32,0,0,0-10.7,5.6,53.23,53.23,0,0,0-9.76,7.64Q40.88,95,40.88,99.44a2.35,2.35,0,0,0,1,2,9.2,9.2,0,0,0,2.55,1.27,14.71,14.71,0,0,0,3.31.68c1.19.11,2.29.17,3.31.17a52.5,52.5,0,0,0,11.63-1.45,67.73,67.73,0,0,0,12.82-4.33,68.46,68.46,0,0,0,12.4-7.21A52.5,52.5,0,0,0,98.27,80.6a14.08,14.08,0,0,0,.94-1.28,17.16,17.16,0,0,0,1.44-2.54,28.46,28.46,0,0,0,1.19-3,4.08,4.08,0,0,0,.17-2.54A68,68,0,0,0,92.33,71.26ZM124,98.59a6.05,6.05,0,0,0,1.61,2,3.83,3.83,0,0,0,2.55.85,5.45,5.45,0,0,0,3.56-1.27,10.19,10.19,0,0,0,2.46-3,13.37,13.37,0,0,0,1.36-3.56,14.66,14.66,0,0,0,.43-3.06,16.39,16.39,0,0,0-1.7-6.62,12.4,12.4,0,0,0-6.45-5.94A27.19,27.19,0,0,0,123.91,87a34.1,34.1,0,0,0-1,7.05,11.19,11.19,0,0,0,.26,2.12A9.57,9.57,0,0,0,124,98.59ZM75.52,28.64A77.94,77.94,0,0,0,66,27.79q-5.27-.16-10.18.17c-3.29.23-5.66.45-7.14.68q-.84.16-1.44,2a32.92,32.92,0,0,0-1,4.16c-.28,1.52-.51,3-.68,4.41s-.25,2.29-.25,2.63L45,46q1.35-.51,4.5-1.53t7-2.46l7.9-3q4.07-1.53,7.55-3.06t5.86-2.8c1.58-.85,2.49-1.56,2.72-2.12C80,29.89,78.35,29.09,75.52,28.64Z" transform="translate(-9.14 -12.86)"/></svg>